<svg width="295" height="438" viewBox="0 0 295 438" fill="none" xmlns="http://www.w3.org/2000/svg">
<path d="M286.088 212.152C290.595 216.675 290.581 223.995 286.058 228.502L218.902 295.412L9.80546 85.5473C5.29894 81.0243 5.31235 73.7043 9.83543 69.1978L68.8016 10.4473C73.3247 5.94074 80.6447 5.95417 85.1512 10.4772L286.088 212.152Z" fill="#6054FF"/>
<path d="M209.879 8.86783C214.39 4.34861 221.71 4.34146 226.229 8.85186L285.145 67.6528C289.664 72.1632 289.671 79.4832 285.161 84.0024L84.0512 285.505C79.5409 290.024 72.2209 290.032 67.7017 285.521L8.78575 226.72C4.26653 222.21 4.25939 214.89 8.76978 210.371L209.879 8.86783Z" fill="#459AFF"/>
<path d="M146.269 227.278L221.55 302.412L152.128 371.97L85.0297 305.002C80.5104 300.492 80.5033 293.172 85.0137 288.652L146.269 227.278Z" fill="#645EAC"/>
<path d="M281.408 357.529C285.915 362.052 285.901 369.372 281.378 373.879L225.545 429.508C221.022 434.014 213.702 434.001 209.195 429.478L8.2582 227.803C3.75166 223.28 3.76509 215.96 8.28817 211.453L72.3112 147.664L281.408 357.529Z" fill="#459AFF"/>
</svg>
